<svg height="512pt" viewBox="0 -32 512 512" width="512pt" xmlns="http://www.w3.org/2000/svg">
    <path d="m494.5 0h-266.605469c-4.140625 0-7.5 3.359375-7.5 7.5s3.359375 7.5 7.5 7.5h266.605469c1.378906 0 2.5 1.121094 2.5 2.5v46.070312h-336.109375v-48.570312h34.34375c4.144531 0 7.5-3.359375 7.5-7.5s-3.355469-7.5-7.5-7.5h-177.734375c-9.648438 0-17.5 7.851562-17.5 17.5v413.046875c0 9.648437 7.851562 17.5 17.5 17.5h56.242188c4.144531 0 7.5-3.359375 7.5-7.5s-3.355469-7.5-7.5-7.5h-56.242188c-1.378906 0-2.5-1.121094-2.5-2.5v-351.980469h482v245.304688c0 4.140625 3.355469 7.5 7.5 7.5s7.5-3.359375 7.5-7.5v-306.371094c0-9.648438-7.851562-17.5-17.5-17.5zm-479.5 17.5c0-1.378906 1.121094-2.5 2.5-2.5h128.390625v48.570312h-130.890625zm0 0"/>
    <path d="m504.5 349.03125c-4.144531 0-7.5 3.359375-7.5 7.5v74.015625c0 1.378906-1.121094 2.5-2.5 2.5h-388.097656c-4.144532 0-7.5 3.355469-7.5 7.5 0 4.140625 3.355468 7.5 7.5 7.5h388.097656c9.648438 0 17.5-7.851563 17.5-17.5v-74.015625c0-4.140625-3.355469-7.5-7.5-7.5zm0 0"/>
    <path d="m54.007812 31.707031h-.105468c-.011719 0-.023438 0-.035156 0-4.125 0-7.476563 3.335938-7.5 7.464844-.019532 4.140625 3.324218 7.515625 7.46875 7.535156h.101562.039062c4.125 0 7.476563-3.335937 7.496094-7.464843.019532-4.144532-3.324218-7.515626-7.464844-7.535157zm0 0"/>
    <path d="m81.484375 31.785156h-.101563c-4.144531 0-7.5 3.359375-7.5 7.5 0 4.144532 3.355469 7.5 7.5 7.5h.101563c4.144531 0 7.5-3.355468 7.5-7.5 0-4.140625-3.355469-7.5-7.5-7.5zm0 0"/>
    <path d="m109.035156 31.867188h-.105468c-.015626 0-.023438 0-.035157 0-4.128906 0-7.480469 3.332031-7.5 7.464843-.019531 4.140625 3.324219 7.515625 7.464844 7.535157h.105469.035156c4.128906 0 7.480469-3.335938 7.5-7.46875.019531-4.140626-3.324219-7.511719-7.464844-7.53125zm0 0"/>
    <path d="m213.667969 101.515625h-157c-4.144531 0-7.5 3.359375-7.5 7.5 0 4.144531 3.355469 7.5 7.5 7.5h157c4.140625 0 7.5-3.355469 7.5-7.5 0-4.140625-3.359375-7.5-7.5-7.5zm0 0"/>
    <path d="m281.332031 116.515625h22c4.144531 0 7.5-3.355469 7.5-7.5 0-4.140625-3.355469-7.5-7.5-7.5h-22c-4.140625 0-7.5 3.359375-7.5 7.5 0 4.144531 3.359375 7.5 7.5 7.5zm0 0"/>
    <path d="m354 116.515625c4.144531 0 7.5-3.355469 7.5-7.5 0-4.140625-3.355469-7.5-7.5-7.5h-22c-4.144531 0-7.5 3.359375-7.5 7.5 0 4.144531 3.355469 7.5 7.5 7.5zm0 0"/>
    <path d="m404.667969 101.515625h-22c-4.144531 0-7.5 3.359375-7.5 7.5 0 4.144531 3.355469 7.5 7.5 7.5h22c4.140625 0 7.5-3.355469 7.5-7.5 0-4.140625-3.359375-7.5-7.5-7.5zm0 0"/>
    <path d="m455.332031 116.515625c4.144531 0 7.5-3.355469 7.5-7.5 0-4.140625-3.355469-7.5-7.5-7.5h-22c-4.140625 0-7.5 3.359375-7.5 7.5 0 4.144531 3.359375 7.5 7.5 7.5zm0 0"/>
    <path d="m75.253906 322.835938h68.042969c3.894531 5.15625 10.0625 8.511718 17.011719 8.511718 6.949218 0 13.113281-3.355468 17.011718-8.511718h17.761719c9.648438 0 17.5-7.851563 17.5-17.5v-119.832032c0-9.648437-7.851562-17.5-17.5-17.5h-119.828125c-9.652344 0-17.5 7.851563-17.5 17.5v119.832032c0 9.648437 7.847656 17.5 17.5 17.5zm85.054688-6.488282c-3.492188 0-6.335938-2.839844-6.335938-6.335937v-34.664063h12.671875v34.664063c0 3.496093-2.84375 6.335937-6.335937 6.335937zm-87.554688-130.84375c0-1.375 1.117188-2.5 2.5-2.5h119.828125c1.378907 0 2.5 1.125 2.5 2.5v119.832032c0 1.378906-1.121093 2.5-2.5 2.5h-13.4375v-38.988282c0-.167968-.015625-.332031-.027343-.5.011718-.164062.027343-.328125.027343-.5 0-4.140625-3.359375-7.5-7.5-7.5h-77.957031c-4.140625 0-7.5 3.359375-7.5 7.5 0 4.144532 3.359375 7.5 7.5 7.5h42.785156v32.488282h-63.722656c-1.378906 0-2.5-1.121094-2.5-2.5v-119.832032zm0 0"/>
    <path d="m90.886719 241.558594c1.464843 1.464844 3.382812 2.195312 5.304687 2.195312 1.917969 0 3.835938-.730468 5.300782-2.195312l3.449218-3.445313 3.445313 3.445313c1.464843 1.464844 3.382812 2.195312 5.304687 2.195312 1.917969 0 3.835938-.730468 5.300782-2.195312 2.929687-2.929688 2.929687-7.679688 0-10.605469l-3.445313-3.449219 3.445313-3.445312c2.929687-2.929688 2.929687-7.679688 0-10.605469-2.929688-2.929687-7.675782-2.929687-10.605469 0l-3.445313 3.445313-3.445312-3.445313c-2.929688-2.929687-7.679688-2.929687-10.609375 0-2.925781 2.929687-2.925781 7.675781 0 10.605469l3.449219 3.445312-3.449219 3.449219c-2.929688 2.925781-2.929688 7.675781 0 10.605469zm0 0"/>
    <path d="m151.339844 241.558594c1.464844 1.464844 3.386718 2.195312 5.304687 2.195312s3.839844-.730468 5.304688-2.195312l3.445312-3.445313 3.445313 3.445313c1.464844 1.464844 3.386718 2.195312 5.304687 2.195312s3.839844-.730468 5.304688-2.195312c2.929687-2.929688 2.929687-7.679688 0-10.605469l-3.449219-3.449219 3.445312-3.445312c2.929688-2.929688 2.929688-7.679688 0-10.605469-2.929687-2.929687-7.675781-2.929687-10.605468 0l-3.445313 3.445313-3.445312-3.445313c-2.929688-2.929687-7.679688-2.929687-10.609375 0-2.929688 2.929687-2.929688 7.675781 0 10.605469l3.449218 3.445312-3.449218 3.449219c-2.929688 2.925781-2.929688 7.675781 0 10.605469zm0 0"/>
    <path d="m267 172.261719c-4.144531 0-7.5 3.359375-7.5 7.5v70.675781c0 9.648438 7.851562 17.5 17.5 17.5h18.832031v51.652344c0 4.144531 3.359375 7.5 7.5 7.5 4.144531 0 7.5-3.355469 7.5-7.5v-79.078125c0-4.144531-3.355469-7.5-7.5-7.5-4.140625 0-7.5 3.355469-7.5 7.5v12.425781h-18.832031c-1.378906 0-2.5-1.121094-2.5-2.5v-70.675781c0-4.140625-3.355469-7.5-7.5-7.5zm0 0"/>
    <path d="m415.332031 240.511719v12.425781h-18.832031c-1.378906 0-2.5-1.121094-2.5-2.5v-70.675781c0-4.140625-3.355469-7.5-7.5-7.5s-7.5 3.359375-7.5 7.5v70.675781c0 9.648438 7.851562 17.5 17.5 17.5h18.832031v51.652344c0 4.144531 3.359375 7.5 7.5 7.5 4.144531 0 7.5-3.355469 7.5-7.5v-79.078125c0-4.144531-3.355469-7.5-7.5-7.5-4.140625 0-7.5 3.359375-7.5 7.5zm0 0"/>
    <path d="m319.25 189.761719v119.832031c0 9.648438 7.851562 17.5 17.5 17.5h16.332031c9.648438 0 17.5-7.851562 17.5-17.5v-119.832031c0-9.648438-7.851562-17.5-17.5-17.5h-16.332031c-9.648438 0-17.5 7.851562-17.5 17.5zm15 0c0-1.378907 1.121094-2.5 2.5-2.5h16.332031c1.378907 0 2.5 1.121093 2.5 2.5v119.832031c0 1.375-1.121093 2.5-2.5 2.5h-16.332031c-1.378906 0-2.5-1.125-2.5-2.5zm0 0"/>
    <path d="m178.832031 371.6875c0 4.140625 3.359375 7.5 7.5 7.5h139.335938c4.140625 0 7.5-3.359375 7.5-7.5 0-4.144531-3.359375-7.5-7.5-7.5h-139.335938c-4.140625 0-7.5 3.355469-7.5 7.5zm0 0"/>
    <path d="m225.667969 386.1875c-4.144531 0-7.5 3.355469-7.5 7.5 0 4.140625 3.355469 7.5 7.5 7.5h60.664062c4.144531 0 7.5-3.359375 7.5-7.5 0-4.144531-3.355469-7.5-7.5-7.5zm0 0"/>
</svg>
