<svg style="display: none;" xmlns="http://www.w3.org/2000/svg">

    <symbol id="messages" viewBox="0 0 24 24">
        <g id="Symbols" stroke="none" stroke-width="1" fill="none" fill-rule="evenodd">
            <g id="Group-3" fill-rule="nonzero" stroke="currentcolor" stroke-width="2">
                <g transform="translate(2.000000, 4.000000)" id="chat-speech-bubbles">
                    <g>
                        <path d="M10,0 C4.47692308,0 0,3.41802174 0,7.63633097 C0,9.70424939 1.07846154,11.5843141 2.82923077,12.9588537 C2.72769231,14.360884 2.38769231,16.076004 1.40307692,17 C3.36307692,17 5.36615385,15.7812416 6.63230769,14.8282275 C7.68461538,15.1153535 8.81692308,15.2726619 10,15.2726619 C15.5230769,15.2726619 20,11.8561675 20,7.63633097 C20,3.41802174 15.5230769,0 10,0 Z" id="Shape"></path>
                    </g>
                </g>
            </g>
        </g>
    </symbol>

    <symbol id="user" viewBox="0 0 32 32" fill="none" stroke="currentcolor" stroke-linecap="round" stroke-linejoin="round" stroke-width="2">
        <path d="M22 11 C22 16 19 20 16 20 13 20 10 16 10 11 10 6 12 3 16 3 20 3 22 6 22 11 Z M4 30 L28 30 C28 21 22 20 16 20 10 20 4 21 4 30 Z" />
    </symbol>

    <symbol id="settings" viewBox="0 0 32 32" fill="none" stroke="currentcolor" stroke-linecap="round" stroke-linejoin="round" stroke-width="2">
        <path d="M13 2 L13 6 11 7 8 4 4 8 7 11 6 13 2 13 2 19 6 19 7 21 4 24 8 28 11 25 13 26 13 30 19 30 19 26 21 25 24 28 28 24 25 21 26 19 30 19 30 13 26 13 25 11 28 8 24 4 21 7 19 6 19 2 Z" />
        <circle cx="16" cy="16" r="4" />
    </symbol>


    <symbol id="book" viewBox="0 0 24 24" fill="none" stroke="currentColor" stroke-width="2" stroke-linecap="round" stroke-linejoin="round">
        <path d="M2 3h6a4 4 0 0 1 4 4v14a3 3 0 0 0-3-3H2z"></path><path d="M22 3h-6a4 4 0 0 0-4 4v14a3 3 0 0 1 3-3h7z"></path>
    </symbol>

    <symbol id="book-open" viewBox="0 0 24 24" fill="none" stroke="currentColor" stroke-width="2" stroke-linecap="round" stroke-linejoin="round">
        <path d="M4 19.5A2.5 2.5 0 0 1 6.5 17H20"></path><path d="M6.5 2H20v20H6.5A2.5 2.5 0 0 1 4 19.5v-15A2.5 2.5 0 0 1 6.5 2z"></path>
    </symbol>


    <symbol id="forum" viewBox="0 0 24 24" fill="none" stroke="currentColor" stroke-width="2" stroke-linecap="round" stroke-linejoin="round">
        <path d="M21 15a2 2 0 0 1-2 2H7l-4 4V5a2 2 0 0 1 2-2h14a2 2 0 0 1 2 2z"></path>
    </symbol>


    <symbol id="chat" viewBox="2 0 20 20">
        <g fill="none" fill-rule="evenodd" stroke="currentColor" stroke-linecap="round" stroke-linejoin="round" stroke-width="2">
            <path d="M15.61 17.99a6.976 6.976 0 0 1-3.61 1c-3.866 0-7-3.131-7-6.995A6.998 6.998 0 0 1 12 5a6.998 6.998 0 0 1 5.902 10.76M16 17.992l3 .999-1-2.998M10 10.996h4M10 13.994h2"/>
        </g>
    </symbol>

    <symbol id="download" viewBox="0 0 24 24" fill="none" stroke="currentColor" stroke-width="2" stroke-linecap="round" stroke-linejoin="round">
        <path d="M21 15v4a2 2 0 0 1-2 2H5a2 2 0 0 1-2-2v-4"></path><polyline points="7 10 12 15 17 10"></polyline><line x1="12" y1="15" x2="12" y2="3"></line>
    </symbol>

    <symbol id="text" viewBox="0 0 24 24" fill="none" stroke="currentColor" stroke-width="2" stroke-linecap="round" stroke-linejoin="round">
        <path d="M14 2H6a2 2 0 0 0-2 2v16a2 2 0 0 0 2 2h12a2 2 0 0 0 2-2V8z"></path><polyline points="14 2 14 8 20 8"></polyline><line x1="16" y1="13" x2="8" y2="13"></line><line x1="16" y1="17" x2="8" y2="17"></line><polyline points="10 9 9 9 8 9"></polyline>
    </symbol>

    <symbol id="users" viewBox="0 0 24 24" fill="none" stroke="currentColor" stroke-width="2" stroke-linecap="round" stroke-linejoin="round">
        <path d="M17 21v-2a4 4 0 0 0-4-4H5a4 4 0 0 0-4 4v2"></path><circle cx="9" cy="7" r="4"></circle><path d="M23 21v-2a4 4 0 0 0-3-3.87"></path><path d="M16 3.13a4 4 0 0 1 0 7.75"></path>
    </symbol>


    <symbol id="picasa" viewBox="0 0 24 24" fill="none" stroke="currentColor" stroke-width="2" stroke-linecap="round" stroke-linejoin="round">
        <circle cx="12" cy="12" r="10"></circle><line x1="14.31" y1="8" x2="20.05" y2="17.94"></line><line x1="9.69" y1="8" x2="21.17" y2="8"></line><line x1="7.38" y1="12" x2="13.12" y2="2.06"></line><line x1="9.69" y1="16" x2="3.95" y2="6.06"></line><line x1="14.31" y1="16" x2="2.83" y2="16"></line><line x1="16.62" y1="12" x2="10.88" y2="21.94"></line>
    </symbol>

    <symbol id="info" viewBox="0 0 24 24" fill="none" stroke="currentColor" stroke-width="2" stroke-linecap="round" stroke-linejoin="round">
        <circle cx="12" cy="12" r="10"></circle><line x1="12" y1="16" x2="12" y2="12"></line><line x1="12" y1="8" x2="12.01" y2="8"></line>
    </symbol>

    <symbol id="help-circle" viewBox="0 0 24 24" fill="none" stroke="currentColor" stroke-width="2" stroke-linecap="round" stroke-linejoin="round">
        <circle cx="12" cy="12" r="10"></circle><path d="M9.09 9a3 3 0 0 1 5.83 1c0 2-3 3-3 3"></path><line x1="12" y1="17" x2="12.01" y2="17"></line>
    </symbol>


    <symbol id="chevron-bottom" viewBox="0 0 32 32" fill="none" stroke="currentcolor" stroke-linecap="round" stroke-linejoin="round" stroke-width="2">
        <path d="M30 12 L16 24 2 12" />
    </symbol>

    <symbol id="chevron-right" xmlns="http://www.w3.org/2000/svg" viewBox="0 0 32 32" fill="none" stroke="currentcolor" stroke-linecap="round" stroke-linejoin="round" stroke-width="2">
        <path d="M12 30 L24 16 12 2" />
    </symbol>

    <symbol id="calendar" viewBox="0 0 24 24" fill="none" stroke="currentColor" stroke-width="2" stroke-linecap="round" stroke-linejoin="round">
        <rect x="3" y="4" width="18" height="18" rx="2" ry="2"></rect><line x1="16" y1="2" x2="16" y2="6"></line><line x1="8" y1="2" x2="8" y2="6"></line><line x1="3" y1="10" x2="21" y2="10"></line>
    </symbol>

    <symbol id="search" viewBox="0 0 24 24" fill="none" stroke="currentColor" stroke-width="2" stroke-linecap="round" stroke-linejoin="round">
        <circle cx="11" cy="11" r="8"></circle><line x1="21" y1="21" x2="16.65" y2="16.65"></line>
    </symbol>

    <symbol id="check" viewBox="0 0 24 24" fill="none" stroke="currentColor" stroke-width="2" stroke-linecap="round" stroke-linejoin="round">
        <polyline points="20 6 9 17 4 12"></polyline>
    </symbol>

    <symbol id="github" viewBox="0 0 24 24" fill="none" stroke="currentColor" stroke-width="2" stroke-linecap="round" stroke-linejoin="round">
        <path d="M9 19c-5 1.5-5-2.5-7-3m14 6v-3.87a3.37 3.37 0 0 0-.94-2.61c3.14-.35 6.44-1.54 6.44-7A5.44 5.44 0 0 0 20 4.77 5.07 5.07 0 0 0 19.91 1S18.73.65 16 2.48a13.38 13.38 0 0 0-7 0C6.27.65 5.09 1 5.09 1A5.07 5.07 0 0 0 5 4.77a5.44 5.44 0 0 0-1.5 3.78c0 5.42 3.3 6.61 6.44 7A3.37 3.37 0 0 0 9 18.13V22"></path>
    </symbol>

</svg>
