<?xml version="1.0" encoding="UTF-8"?>
<!DOCTYPE svg PUBLIC "-//W3C//DTD SVG 1.1//EN" "http://www.w3.org/Graphics/SVG/1.1/DTD/svg11.dtd">
<!-- Creator: CorelDRAW 2019 (64-Bit) -->
<svg xmlns="http://www.w3.org/2000/svg" xml:space="preserve" width="90.5078mm" height="16.8mm" version="1.1" style="shape-rendering:geometricPrecision; text-rendering:geometricPrecision; image-rendering:optimizeQuality; fill-rule:evenodd; clip-rule:evenodd"
viewBox="0 0 5542396.39 1028776.08"
 xmlns:xlink="http://www.w3.org/1999/xlink"
 xmlns:xodm="http://www.corel.com/coreldraw/odm/2003">
 <defs>
  <style type="text/css">
   <![CDATA[
    .fil4 {fill:#EBECEC}
    .fil3 {fill:#D9DADA}
    .fil2 {fill:#C5C6C6}
    .fil0 {fill:#4B5865;fill-rule:nonzero}
    .fil1 {fill:red;fill-rule:nonzero}
   ]]>
  </style>
 </defs>
 <g id="Layer_x0020_1">
  <metadata id="CorelCorpID_0Corel-Layer"/>
  <path class="fil0" d="M519176.75 8248.58c0,-2198.4 863.44,-4121.23 2578.06,-5774.62 1726.87,-1653.39 3729.31,-2473.96 6031.81,-2473.96l196300.27 0c2302.5,0 4164.09,820.57 5597.03,2473.96 1439.06,1653.39 2155.53,3576.22 2155.53,5774.62l0 508380.72c0,26405.25 -9755,48964.84 -29271.13,67672.65 -19522.25,18707.8 -43049.38,28058.64 -70605.88,28058.64l-532091.56 0c-27550.38,0 -51077.51,-9350.84 -70599.76,-28058.64 -19516.13,-18707.8 -29271.13,-41267.39 -29271.13,-67672.65l0 -127096.71c0,-2198.4 863.44,-3986.51 2584.19,-5364.33 1720.75,-1377.83 3729.31,-2063.68 6019.56,-2063.68l196312.52 0c2290.25,0 4157.97,685.85 5597.03,2063.68 1432.94,1377.83 2149.41,3165.94 2149.41,5364.33l0 89129.97c0,8805.83 3306.78,16233.84 9901.97,22284.02 6601.31,6050.18 14488.6,9081.4 23680.22,9081.4l239349.65 0c9191.62,0 17078.91,-3031.22 23680.22,-9081.4 6595.19,-6050.18 9901.97,-13478.19 9901.97,-22284.02l0 -470413.98z"/>
  <path id="1" class="fil0" d="M870454.79 96557.98c0,-26411.38 9755,-49105.69 29277.25,-68089.05 19516.13,-18977.24 43049.38,-28468.93 70599.76,-28468.93l604412.07 0c27556.5,0 51083.63,9491.68 70599.76,28468.93 19522.25,18983.37 29277.25,41677.68 29277.25,68089.05l0 420071.32c0,26405.25 -9755,48964.84 -29277.25,67672.65 -19516.13,18707.8 -43043.26,28058.64 -70599.76,28058.64l-604412.07 0c-27550.38,0 -51083.63,-9350.84 -70599.76,-28058.64 -19522.25,-18707.8 -29277.25,-41267.39 -29277.25,-67672.65l0 -420071.32zm212662.71 382104.58c0,8805.83 3306.78,16233.84 9901.97,22284.02 6601.31,6050.18 14500.84,9081.4 23680.22,9081.4l311676.29 0c9185.5,0 17078.91,-3031.22 23680.22,-9081.4 6595.19,-6050.18 9901.97,-13478.19 9901.97,-22284.02l0 -344143.97c0,-8799.71 -3306.78,-16368.56 -9901.97,-22694.31 -6601.31,-6325.75 -14494.72,-9491.68 -23680.22,-9491.68l-311676.29 0c-9179.38,0 -17078.91,3165.94 -23680.22,9491.68 -6595.19,6325.75 -9901.97,13894.6 -9901.97,22694.31l0 344143.97z"/>
  <path id="2" class="fil0" d="M2393551.64 8248.58c0,-2198.4 716.47,-4121.23 2149.41,-5774.62 1432.94,-1653.39 3300.66,-2473.96 5597.03,-2473.96l196300.27 0c2302.5,0 4311.06,820.57 6031.81,2473.96 1720.75,1653.39 2584.19,3576.22 2584.19,5774.62l0 595857.31c0,5505.18 -2872,8254.7 -8616,8254.7l-196300.27 0c-2296.38,0 -4164.09,-826.7 -5597.03,-2473.96 -1432.94,-1653.39 -2149.41,-3576.22 -2149.41,-5780.74l0 -258314.65 -364198.98 0 0 258314.65c0,2204.52 -716.47,4127.35 -2155.53,5780.74 -1439.06,1647.27 -3300.66,2473.96 -5597.03,2473.96l-196306.4 0c-5737.88,0 -8603.75,-2749.53 -8603.75,-8254.7l0 -595857.31c0,-2198.4 857.31,-4121.23 2578.06,-5774.62 1726.87,-1653.39 3729.31,-2473.96 6025.69,-2473.96l196306.4 0c2296.38,0 4157.97,820.57 5597.03,2473.96 1439.06,1653.39 2155.53,3576.22 2155.53,5774.62l0 236036.75 364198.98 0 0 -236036.75z"/>
  <path id="3" class="fil0" d="M3564494.77 604105.88c0,2204.52 -716.47,4127.35 -2155.53,5780.74 -1432.94,1647.27 -3294.53,2473.96 -5597.03,2473.96l-203189.4 0c-3441.5,0 -5456.19,-1102.26 -6031.81,-3300.66l-378834.54 -398613.99 0 393659.94c0,2204.52 -716.47,4127.35 -2149.41,5780.74 -1432.94,1647.27 -3300.66,2473.96 -5597.03,2473.96l-196300.27 0c-5744,0 -8616,-2749.53 -8616,-8254.7l0 -595857.31c0,-2198.4 863.44,-4121.23 2590.31,-5774.62 1714.63,-1653.39 3729.31,-2473.96 6025.69,-2473.96l197163.71 0c2296.38,0 4592.75,1096.14 6883,3300.66l383145.6 406042 0 -401094.07c0,-2198.4 857.31,-4121.23 2578.06,-5774.62 1726.87,-1653.39 3729.31,-2473.96 6031.81,-2473.96l196300.27 0c2302.5,0 4164.09,820.57 5597.03,2473.96 1439.06,1653.39 2155.53,3576.22 2155.53,5774.62l0 595857.31z"/>
  <path class="fil1" d="M3709564.45 315319.87c0,-15205.07 6246.14,-28279.09 18750.67,-39209.84 12516.78,-10930.75 27776.95,-16393.06 45798.91,-16393.06l366893.39 0c17660.66,0 32737.12,5462.31 45247.78,16393.06 12504.53,10930.75 18756.79,24004.78 18756.79,39209.84l0 54653.73c0,1267.6 -459.28,2375.98 -1377.83,3331.27 -918.55,949.17 -2112.67,1420.69 -3588.47,1420.69l-125786.25 0c-3686.45,0 -5523.55,-1579.91 -5523.55,-4751.97l0 -32792.24c0,-5070.4 -2112.67,-9424.32 -6344.12,-13067.91 -4231.45,-3643.58 -9289.6,-5468.43 -15168.32,-5468.43l-179870.47 0c-5878.72,0 -10845.01,1824.85 -14892.76,5468.43 -4047.74,3643.58 -6068.55,7997.51 -6068.55,13067.91l0 198186.36c0,5070.4 2020.81,9344.72 6068.55,12835.21 4047.74,3484.37 9014.04,5223.49 14892.76,5223.49l179870.47 0c5878.72,0 10936.87,-1739.12 15168.32,-5223.49 4231.45,-3490.49 6344.12,-7764.81 6344.12,-12835.21l0 -33269.88c0,-1267.6 551.13,-2296.38 1653.39,-3086.33 1102.26,-796.08 2394.35,-1187.99 3870.16,-1187.99l125786.25 0c1475.8,0 2669.92,391.91 3588.47,1187.99 918.55,789.95 1377.83,1818.73 1377.83,3086.33l0 55131.38c0,15211.19 -6252.26,28199.49 -18756.79,38971.02 -12510.65,10771.53 -27587.12,16160.36 -45247.78,16160.36l-366893.39 0c-18021.95,0 -33282.13,-5388.83 -45798.91,-16160.36 -12504.53,-10771.53 -18750.67,-23759.83 -18750.67,-38971.02l0 -241909.35z"/>
  <path id="1" class="fil1" d="M4749565.21 262564.48c367.42,-630.74 1010.41,-1267.6 1935.08,-1898.34 912.43,-636.86 1922.83,-949.17 3031.22,-949.17l198615.02 0c1475.8,0 2676.04,471.52 3594.59,1420.69 912.43,955.29 1377.83,2063.68 1377.83,3331.27l0 343139.69c0,1267.6 -465.4,2375.98 -1377.83,3325.15 -918.55,949.17 -2118.79,1426.81 -3594.59,1426.81l-125792.37 0c-3674.2,0 -5511.3,-1586.03 -5511.3,-4751.97l0 -253317.74 -125792.37 255216.07c-1102.26,1904.46 -2761.77,2853.63 -4972.42,2853.63l-137378.35 0c-2571.94,0 -4231.45,-949.17 -4960.17,-2853.63l-126349.62 -255216.07 0 253317.74c0,1267.6 -459.28,2375.98 -1377.83,3325.15 -924.67,949.17 -2118.79,1426.81 -3588.47,1426.81l-125792.37 0c-3680.32,0 -5517.42,-1586.03 -5517.42,-4751.97l0 -343139.69c0,-1267.6 551.13,-2375.98 1659.51,-3331.27 1102.26,-949.17 2388.23,-1420.69 3857.91,-1420.69l198621.14 0c1843.22,0 3490.49,949.17 4966.29,2847.51l126900.75 258547.35 127445.76 -258547.35z"/>
  <path id="2" class="fil1" d="M5177713.64 386611.6c0,5070.4 2106.54,9424.32 6338,13067.91 4231.45,3643.58 9289.6,5468.43 15168.32,5468.43l279184.11 0c17648.41,0 32737.12,5382.7 45241.65,16154.23 12504.53,10777.65 18756.79,23765.95 18756.79,38971.02l0 96956.02c0,15211.19 -6252.26,28199.49 -18756.79,38971.02 -12504.53,10771.53 -27593.24,16160.36 -45241.65,16160.36l-379042.75 0c-17654.53,0 -32731,-5388.83 -45235.53,-16160.36 -12504.53,-10771.53 -18762.92,-23759.83 -18762.92,-38971.02l0 -55602.9c0,-1267.6 557.25,-2296.38 1653.39,-3092.45 1102.26,-789.95 2394.35,-1187.99 3864.03,-1187.99l125792.37 0c1469.68,0 2669.92,398.04 3588.47,1187.99 918.55,796.08 1377.83,1824.85 1377.83,3092.45l0 33741.41c0,5070.4 2112.67,9344.72 6344.12,12835.21 4225.33,3484.37 9289.6,5223.49 15174.45,5223.49l191450.33 0c5884.84,0 10942.99,-1739.12 15168.32,-5223.49 4231.45,-3490.49 6350.24,-7764.81 6350.24,-12835.21l0 -53226.91c0,-5070.4 -2118.79,-9350.84 -6350.24,-12835.21 -4225.33,-3484.37 -9283.48,-5229.61 -15168.32,-5229.61l-279171.86 0c-17660.66,0 -32828.98,-5382.7 -45517.22,-16154.23 -12688.24,-10777.65 -19038.48,-23925.17 -19038.48,-39448.66l0 -93153.22c0,-15205.07 6350.24,-28279.09 19038.48,-39209.84 12688.24,-10930.75 27856.56,-16233.84 45517.22,-15921.53l365791.13 0c17654.53,0 32737.12,5388.83 45241.65,16160.36 12504.53,10771.53 18762.92,23765.95 18762.92,38971.02l0 55131.38c0,1267.6 -557.25,2375.98 -1659.51,3325.15 -1102.26,949.17 -2394.35,1426.81 -3864.03,1426.81l-125792.37 0c-1469.68,0 -2663.8,-477.65 -3582.35,-1426.81 -924.67,-949.17 -1377.83,-2057.55 -1377.83,-3325.15l0 -33269.88c0,-5070.4 -2118.79,-9424.32 -6350.24,-13067.91 -4231.45,-3643.58 -9283.48,-5468.43 -15168.32,-5468.43l-178217.08 0c-5878.72,0 -10936.87,1824.85 -15168.32,5468.43 -4231.45,3643.58 -6338,7997.51 -6338,13067.91l0 49430.24z"/>
 </g>
</svg>
